<?xml version="1.0" encoding="iso-8859-1"?>
<!-- Generator: Adobe Illustrator 16.0.0, SVG Export Plug-In . SVG Version: 6.00 Build 0)  -->
<!DOCTYPE svg PUBLIC "-//W3C//DTD SVG 1.1//EN" "http://www.w3.org/Graphics/SVG/1.1/DTD/svg11.dtd">
<svg version="1.1" id="Capa_1" xmlns="http://www.w3.org/2000/svg" xmlns:xlink="http://www.w3.org/1999/xlink" x="0px" y="0px"
	 width="612px" height="612px" viewBox="0 0 612 612" style="enable-background:new 0 0 612 612;" xml:space="preserve">
<g>
	<g id="_x31_0_31_">
		<g>
			<path d="M306,0C136.992,0,0,136.992,0,306s136.992,306,306,306c168.988,0,306-136.992,306-306S475.008,0,306,0z M392.751,442.189
				c7.478,7.478,7.478,19.584,0,27.042c-7.478,7.459-19.584,7.459-27.043,0l-146.44-146.439c-4.59-4.59-6.005-10.863-4.953-16.811
				c-1.052-5.929,0.382-12.221,4.953-16.811l146.44-146.44c7.479-7.478,19.584-7.478,27.043,0c7.478,7.458,7.478,19.584,0,27.042
				L256.543,306L392.751,442.189z"/>
		</g>
	</g>
</g>
<g>
</g>
<g>
</g>
<g>
</g>
<g>
</g>
<g>
</g>
<g>
</g>
<g>
</g>
<g>
</g>
<g>
</g>
<g>
</g>
<g>
</g>
<g>
</g>
<g>
</g>
<g>
</g>
<g>
</g>
</svg>
